t150 o4 d32 b48 a96 b48 r32 b48;
----------------------------------------------------------------------------------------------------
t150 o4 e6 b96 f+4. b96 g3 b96;
----------------------------------------------------------------------------------------------------
t150 o4 g+16 b96 b8 b96  b96;
----------------------------------------------------------------------------------------------------
t150 o4   t90 r4 o3 c8 o2 a+8 o3 d+8 c+8 o2 g+8 f8 t86 e8 t82 o3 c8 t78 o2 g8 t74 a+8 t70 a2;
----------------------------------------------------------------------------------------------------
t150 o4   r16  e1 a+1 o2 c+8 g+8 o3 c8 r8 o2 f+8 a+8 o3 c+8 r8 o2 c8 g8 o3 c8 r8 o2 f2